<?xml version="1.0" standalone="no"?>
<!DOCTYPE svg PUBLIC "-//W3C//DTD SVG 20010904//EN"
 "http://www.w3.org/TR/2001/REC-SVG-20010904/DTD/svg10.dtd">
<svg version="1.0" xmlns="http://www.w3.org/2000/svg"
 width="652.000000pt" height="652.000000pt" viewBox="0 0 652.000000 652.000000"
 preserveAspectRatio="xMidYMid meet">
<metadata>
Created by potrace 1.11, written by Peter Selinger 2001-2013
</metadata>
<g transform="translate(0.000000,652.000000) scale(0.100000,-0.100000)"
fill="#000000" stroke="none">
<path d="M3844 6500 c-18 -4 -40 -11 -50 -15 -11 -4 -23 -9 -29 -9 -9 -1 -43
-21 -125 -74 -44 -29 -68 -40 -74 -34 -3 3 -6 0 -6 -6 0 -6 -8 -13 -18 -16
-10 -4 -28 -23 -40 -44 -11 -21 -30 -46 -42 -57 -11 -10 -20 -24 -20 -30 0 -7
-13 -18 -30 -25 -27 -11 -70 -77 -70 -108 0 -7 -4 -12 -9 -12 -7 0 -35 -22
-74 -58 -4 -4 -22 -26 -38 -49 -17 -24 -38 -43 -46 -43 -45 0 -160 -79 -211
-144 -18 -23 -27 -14 -42 39 -10 36 -10 61 -1 115 22 134 10 160 -72 160 -28
0 -47 5 -47 11 0 7 -12 9 -32 5 -18 -3 -39 -6 -45 -6 -52 3 -70 3 -83 -1 -9
-3 -16 5 -18 21 -4 26 -18 40 -39 40 -7 0 -38 -22 -70 -49 -53 -44 -63 -48
-103 -46 -91 6 -185 -30 -243 -91 -26 -28 -43 -37 -74 -39 -22 -2 -53 -10 -69
-18 -44 -23 -151 -135 -184 -192 -24 -42 -75 -178 -73 -195 0 -3 -3 -15 -8
-27 -4 -12 -9 -53 -10 -92 -1 -47 -6 -72 -15 -75 -19 -7 -56 49 -70 108 -7 28
-13 43 -13 33 -2 -43 24 -111 54 -140 38 -39 65 -77 65 -94 0 -6 -14 -25 -31
-41 -21 -19 -28 -32 -20 -36 7 -5 10 -2 9 6 -2 7 7 14 20 16 26 4 29 -13 5
-27 -10 -6 -12 -11 -5 -11 15 0 16 -20 1 -20 -7 0 -17 -7 -24 -16 -10 -15 -13
-15 -28 1 -9 9 -17 22 -17 28 0 7 5 4 11 -5 10 -17 39 -14 39 4 0 6 -7 8 -15
4 -8 -3 -15 -2 -15 3 0 4 -19 29 -42 54 -24 25 -53 58 -65 74 -18 23 -24 26
-35 15 -11 -11 -10 -12 6 -6 13 5 17 4 12 -4 -4 -7 -2 -12 5 -12 6 0 9 -8 6
-20 -3 -11 -1 -21 4 -21 5 -1 14 -3 19 -4 6 -1 13 -3 18 -4 4 -1 0 -5 -8 -11
-8 -5 -11 -13 -6 -17 5 -4 11 -2 13 5 3 6 9 12 14 12 6 0 8 -4 5 -9 -3 -4 2
-17 10 -27 9 -10 12 -13 8 -5 -5 10 -3 12 5 7 7 -5 9 -11 6 -15 -12 -11 -30
-7 -37 9 -6 13 -7 13 -7 -1 -1 -9 6 -22 14 -29 20 -17 19 -34 -1 -26 -13 5
-14 3 -6 -7 7 -8 7 -18 2 -27 -6 -8 -10 -21 -10 -29 0 -11 4 -9 16 5 8 10 13
13 9 7 -3 -7 0 -13 7 -13 10 0 10 -2 -1 -9 -7 -5 -10 -14 -6 -20 4 -7 1 -18
-5 -26 -7 -8 -10 -15 -7 -15 2 0 -13 -18 -34 -41 -22 -24 -36 -46 -32 -55 3
-8 11 -13 17 -11 6 2 19 0 28 -5 14 -6 16 -5 12 7 -3 8 -11 12 -18 8 -6 -4 -4
1 4 12 14 17 13 17 -9 10 -21 -6 -22 -5 -10 8 8 8 18 12 23 9 5 -3 6 2 3 12
-5 11 -3 15 5 10 7 -4 8 -3 4 4 -4 7 -5 12 -2 12 3 0 10 -9 16 -20 6 -11 7
-20 3 -19 -20 3 -27 -2 -13 -11 11 -7 11 -10 2 -10 -7 0 -10 -5 -7 -10 4 -6
11 -7 17 -4 6 4 8 -2 3 -17 -5 -19 -4 -21 4 -9 7 10 11 11 11 3 0 -7 5 -13 11
-13 8 0 7 5 -1 15 -7 9 -10 18 -7 21 8 9 28 -6 22 -16 -3 -4 2 -10 10 -14 9
-3 12 -12 9 -23 -5 -16 -4 -16 10 1 22 27 20 6 -1 -23 -39 -51 -55 -63 -66
-52 -8 8 -8 14 1 23 7 7 12 17 12 23 0 5 -5 2 -11 -8 -8 -14 -14 -16 -25 -6
-7 6 -11 15 -8 20 3 5 -2 6 -10 3 -8 -3 -12 -12 -9 -20 3 -8 -1 -14 -11 -14
-10 0 -13 5 -9 18 6 15 5 16 -13 2 -10 -8 -16 -11 -13 -7 6 8 -35 57 -47 57
-10 0 -33 28 -27 33 3 3 -8 26 -25 50 -29 43 -66 142 -76 202 -2 17 -5 30 -6
30 -3 0 -8 28 -13 64 -2 14 -9 26 -16 27 -6 1 -7 0 -2 -2 6 -3 7 -12 5 -19 -3
-8 -2 -19 2 -26 4 -7 9 -30 10 -53 3 -38 3 -40 -11 -22 -8 11 -15 28 -15 37 0
25 -19 34 -27 14 -3 -10 8 -48 27 -88 18 -40 38 -85 45 -102 50 -121 49 -116
35 -125 -18 -11 -50 6 -50 25 0 9 -9 15 -22 15 -22 -1 -22 -1 5 -23 35 -29 36
-50 2 -37 -14 5 -25 8 -25 6 0 -2 50 -49 112 -105 62 -56 113 -107 114 -114 1
-6 3 -19 5 -27 2 -8 -2 -14 -8 -15 -14 0 -17 -8 -11 -27 3 -7 12 -2 25 11 15
16 23 19 28 11 6 -9 10 -9 17 1 8 11 9 10 5 -2 -3 -9 0 -22 6 -28 9 -10 9 -12
-2 -9 -7 2 -16 -3 -19 -11 -3 -8 0 -11 7 -7 7 4 9 2 5 -8 -3 -8 -12 -17 -20
-20 -9 -3 -13 -10 -9 -15 8 -14 -25 -28 -57 -25 -15 2 -38 10 -51 19 -17 11
-26 12 -29 5 -3 -11 -90 29 -148 68 -23 15 -23 14 5 -18 32 -38 81 -74 114
-85 48 -15 -2 -43 -56 -31 -25 5 -26 4 -7 -5 15 -8 45 -8 95 -2 55 8 77 7 86
-2 9 -10 3 -18 -29 -39 -22 -14 -46 -26 -54 -26 -8 0 -44 13 -80 30 -39 17
-61 24 -54 15 7 -8 16 -15 21 -15 5 0 34 -12 65 -27 l57 -27 -43 -39 c-24 -21
-37 -38 -29 -37 29 5 36 -1 34 -27 -1 -19 -9 -32 -26 -40 l-24 -13 28 0 c15 0
27 5 27 11 0 5 5 7 10 4 6 -3 13 1 16 9 3 9 10 14 14 11 4 -3 11 3 15 13 6 16
7 16 20 -2 13 -18 15 -17 45 13 17 17 34 31 36 31 5 0 12 5 67 51 20 17 37 28
37 24 0 -4 -8 -14 -17 -22 -17 -14 -17 -14 0 -9 10 3 23 6 28 6 6 0 7 6 3 13
-6 9 -5 9 8 0 8 -7 18 -9 22 -5 4 4 13 7 19 7 5 0 12 6 15 13 4 13 -18 13 -28
0 -3 -3 -16 0 -30 8 l-25 14 30 -6 c27 -5 28 -4 13 9 -23 18 -23 33 1 58 20
22 53 31 61 18 3 -5 15 -10 27 -12 11 -1 30 -10 43 -18 22 -14 22 -15 2 -16
-11 -1 -26 5 -33 13 -7 8 -15 11 -18 5 -3 -5 -15 -11 -26 -13 -24 -4 -50 -26
-41 -35 3 -4 6 -3 6 2 0 4 8 1 17 -6 15 -12 16 -12 10 4 -4 11 -3 16 3 12 6
-3 10 -1 10 5 0 7 7 9 16 6 10 -4 13 -2 9 7 -4 6 1 3 9 -7 9 -11 16 -24 16
-29 0 -4 5 -5 10 -2 6 4 8 11 5 16 -4 5 -1 9 4 9 13 0 14 -17 2 -24 -4 -3 -7
-17 -6 -31 2 -15 -1 -23 -7 -19 -6 4 -8 -2 -3 -16 6 -17 4 -21 -6 -14 -10 6
-10 3 1 -11 14 -17 13 -18 -3 -12 -11 4 -16 3 -12 -3 12 -20 14 -49 2 -44 -11
4 -67 -40 -67 -53 0 -3 9 2 20 12 29 26 48 27 56 3 7 -23 -14 -98 -28 -98 -4
0 -8 -5 -8 -11 0 -5 -9 -30 -20 -55 -19 -40 -25 -46 -46 -43 -4 0 -10 -4 -14
-11 -4 -6 -17 -12 -28 -13 -12 -1 -22 -4 -22 -8 0 -4 -20 -10 -45 -13 -24 -4
-47 -11 -49 -15 -3 -4 17 -4 45 2 58 11 69 5 44 -23 -10 -11 -13 -20 -7 -20 7
0 12 4 12 9 0 13 33 7 37 -6 2 -6 -6 -18 -19 -27 -12 -9 -17 -16 -10 -16 17 0
64 48 87 87 18 31 58 53 95 53 10 0 23 7 30 15 11 14 10 15 -11 8 -21 -8 -32
-8 -62 -4 -5 0 0 17 12 37 12 19 17 32 11 29 -6 -3 -7 1 -4 10 4 9 9 14 11 11
3 -3 19 20 35 51 21 39 28 64 24 84 -5 26 13 56 27 43 3 -3 3 3 0 14 -6 23 25
64 41 55 6 -4 5 0 -2 9 -19 23 2 31 39 14 16 -7 19 -32 6 -53 -4 -6 -3 -14 3
-18 9 -6 14 14 11 40 -1 6 5 2 13 -8 7 -9 12 -32 10 -50 -3 -17 -6 -51 -9 -75
-2 -23 -8 -48 -12 -55 -4 -6 -8 -20 -8 -31 -1 -11 -15 -30 -31 -42 l-29 -24
28 5 c15 3 27 3 27 -1 0 -3 -21 -38 -46 -77 -70 -112 -151 -245 -192 -320
-237 -433 -257 -466 -293 -479 -20 -7 -32 -21 -42 -53 -9 -24 -13 -46 -9 -49
3 -3 1 -6 -5 -6 -6 0 -43 -36 -83 -81 l-73 -81 -1 -98 c-1 -64 3 -103 11 -111
15 -15 82 -20 106 -7 15 7 17 4 17 -25 0 -48 21 -63 48 -34 21 23 39 64 67
159 9 31 30 78 48 105 69 107 90 149 88 182 0 14 11 43 26 65 61 94 300 370
423 491 221 216 250 246 250 263 0 6 9 12 20 15 11 3 20 12 20 20 0 26 55 137
68 137 6 0 12 4 12 8 0 5 8 17 18 28 10 10 25 34 32 52 8 17 17 32 20 32 9 -1
92 -133 135 -215 36 -68 41 -84 33 -110 -23 -75 -55 -147 -109 -240 -57 -101
-97 -181 -120 -244 -7 -19 -33 -64 -58 -100 -24 -36 -53 -88 -64 -116 -21 -56
-35 -77 -47 -70 -4 3 -22 -8 -39 -25 -18 -16 -41 -32 -52 -35 -10 -4 -19 -11
-19 -17 0 -5 16 -1 36 11 43 26 56 26 53 4 -3 -35 2 -38 24 -11 18 22 33 28
80 32 42 4 79 17 130 45 165 90 296 153 306 146 5 -2 5 -22 0 -42 -4 -21 -13
-65 -20 -98 -6 -33 -15 -69 -19 -80 -4 -11 -13 -38 -19 -60 -6 -22 -20 -71
-31 -109 -11 -38 -22 -92 -24 -120 -7 -81 -26 -156 -41 -156 -8 0 -15 -17 -18
-48 -8 -73 -18 -106 -38 -122 -18 -15 -26 -34 -79 -185 -23 -67 -32 -80 -54
-86 -15 -4 -46 -27 -70 -51 -23 -24 -72 -71 -108 -105 -39 -37 -68 -74 -71
-90 -3 -16 -27 -53 -52 -83 -25 -30 -60 -80 -77 -110 -18 -30 -59 -94 -93
-141 -84 -117 -184 -324 -224 -464 l-18 -60 -44 1 c-24 0 -55 3 -69 7 -22 6
-33 -2 -93 -71 -65 -73 -167 -236 -167 -266 0 -27 66 -86 95 -86 22 0 25 -3
16 -13 -6 -8 -13 -31 -16 -53 -3 -21 -10 -77 -15 -123 -6 -47 -13 -87 -15 -90
-2 -3 -6 -56 -10 -118 l-7 -111 36 -17 c20 -10 36 -21 36 -26 0 -4 19 -14 43
-20 55 -16 481 -19 497 -3 16 16 19 64 6 110 -11 41 -31 71 -93 140 -35 38
-35 38 -17 144 4 25 18 61 31 80 12 19 23 40 23 47 0 24 57 53 99 51 49 -2 58
7 91 80 28 63 24 76 -38 110 -23 13 -42 27 -42 30 0 4 31 26 69 49 76 47 332
244 407 313 115 106 131 129 367 520 38 63 88 137 111 165 23 27 86 115 139
195 53 80 108 159 121 175 14 17 56 72 94 123 38 50 90 114 115 142 51 55 183
170 241 209 l38 25 82 -28 c44 -16 153 -64 241 -106 211 -101 221 -106 285
-125 30 -9 105 -34 165 -56 61 -21 129 -41 152 -45 39 -6 41 -8 32 -31 -7 -20
-4 -35 20 -77 21 -38 27 -57 21 -76 -18 -63 -30 -123 -30 -158 0 -20 -11 -61
-25 -90 -29 -62 -46 -121 -51 -177 -4 -54 -7 -187 -3 -200 1 -5 -3 -30 -10
-54 -7 -23 -10 -49 -7 -57 3 -8 -6 -25 -20 -39 -14 -14 -22 -30 -19 -35 4 -6
8 -30 10 -54 4 -43 4 -44 -28 -50 -17 -3 -42 -8 -53 -10 -12 -3 -51 -16 -88
-31 -36 -14 -78 -28 -92 -31 -32 -6 -66 -23 -76 -38 -25 -36 3 -203 61 -366
16 -47 62 -201 101 -344 96 -350 116 -392 192 -403 27 -3 41 2 72 29 l38 33 5
100 c5 112 17 165 39 165 9 0 13 4 9 9 -3 5 2 16 10 24 8 9 15 25 15 37 0 24
35 106 49 115 5 3 12 1 15 -4 11 -17 317 -32 364 -17 30 10 28 28 -8 50 -17 9
-47 43 -68 74 -32 48 -43 58 -75 63 -51 8 -106 56 -107 92 0 16 2 17 31 1 29
-15 36 -15 86 1 85 27 89 33 129 214 15 64 38 152 51 196 13 44 30 114 37 155
7 41 23 125 34 185 12 61 26 166 31 235 5 69 12 139 15 155 2 17 6 105 7 198
2 92 6 167 10 167 3 0 4 29 2 63 -4 49 -1 67 11 80 18 17 14 60 -10 113 -7 17
-16 48 -19 68 -4 20 -24 66 -45 103 -56 95 -138 177 -325 321 -70 55 -146 98
-397 227 -71 36 -133 74 -140 85 -8 12 -24 20 -41 20 -15 0 -30 7 -33 15 -4 8
-15 15 -26 15 -11 0 -22 8 -25 20 -3 11 -9 20 -13 20 -4 0 -23 15 -42 33 -43
43 -120 87 -152 87 -30 0 -42 16 -26 35 9 10 9 19 2 28 -6 7 -10 115 -11 280
0 147 -5 293 -10 325 -6 31 -12 78 -15 104 -4 47 -4 48 42 81 75 55 161 92
241 105 138 23 189 46 264 122 59 60 71 68 91 60 12 -4 47 -11 77 -15 68 -8
127 -42 174 -99 41 -50 80 -69 69 -33 -18 61 -117 130 -220 152 -107 24 -111
29 -73 90 42 66 72 133 74 168 1 21 -4 31 -24 41 -34 16 -198 21 -236 6 -63
-24 -118 -23 -184 4 -70 28 -113 36 -218 41 -39 1 -75 5 -80 8 -11 7 -54 93
-97 196 -20 46 -46 98 -58 115 -13 17 -36 57 -53 89 -45 88 -110 165 -153 183
-20 8 -67 23 -104 32 l-68 16 4 33 c3 19 18 46 36 65 17 18 38 47 47 63 9 17
25 38 36 47 11 10 17 24 13 33 -3 10 8 30 32 54 33 34 37 44 34 79 -3 33 0 43
17 54 12 7 21 18 21 25 0 23 21 25 58 5 20 -10 53 -22 72 -26 56 -11 130 -48
130 -65 0 -9 14 -24 31 -33 17 -10 28 -21 25 -26 -2 -4 11 -21 30 -37 20 -17
44 -38 55 -47 10 -10 26 -18 34 -18 31 0 95 -148 95 -221 0 -10 11 -26 25 -35
14 -9 25 -23 25 -30 0 -8 4 -14 9 -14 5 0 11 -12 14 -28 7 -32 43 -82 60 -82
17 0 107 83 107 98 0 14 55 108 81 137 10 12 16 32 14 48 -4 30 -30 77 -44 77
-4 0 -14 11 -21 25 -7 14 -19 25 -25 25 -7 0 -19 14 -26 32 -7 18 -21 40 -31
50 -13 13 -18 33 -18 72 0 58 -16 82 -49 73 -20 -5 -56 27 -47 42 3 5 -14 16
-38 25 -24 9 -47 24 -50 32 -3 8 -11 14 -18 13 -54 -7 -80 3 -132 50 -63 57
-166 120 -251 154 -77 31 -103 36 -141 27z m-2050 -1282 c-3 -4 -1 -8 5 -8 6
0 2 -13 -7 -30 -9 -16 -21 -30 -26 -30 -5 0 -3 7 4 15 10 12 10 18 0 30 -9 11
-9 15 -1 15 7 0 10 4 7 8 -3 5 1 9 9 9 8 0 12 -4 9 -9z m-360 -367 c3 -4 -4
-7 -14 -6 -27 2 -33 10 -10 12 11 1 22 -2 24 -6z m200 -70 c3 -5 -1 -11 -9
-14 -9 -4 -12 -1 -8 9 6 16 10 17 17 5z m150 -222 c-4 -8 1 -9 17 -4 16 4 20
3 11 -3 -8 -5 -13 -13 -13 -17 2 -13 -28 -15 -36 -3 -4 7 -1 8 7 3 9 -5 10 -2
5 14 -4 13 -2 21 5 21 6 0 8 -5 4 -11z m41 -59 c6 -1 10 -2 10 -3 0 -1 -2 -1
-4 0 -2 2 -11 -6 -18 -17 -8 -11 -19 -18 -24 -15 -5 4 -9 0 -10 -7 0 -10 -2
-11 -6 0 -3 9 -9 10 -17 3 -9 -8 -13 -7 -13 4 0 8 4 12 8 9 4 -2 10 0 14 6 3
5 0 10 -7 10 -8 1 -6 6 6 15 12 9 25 11 35 6 9 -5 21 -10 26 -11z m48 -20 c7
-27 -4 -32 -28 -13 -18 14 -18 15 -1 9 14 -5 17 -2 12 9 -3 8 -2 15 3 15 5 0
11 -9 14 -20z m201 -45 c3 -8 0 -14 -6 -12 -7 1 -12 -4 -13 -10 0 -7 -10 -20
-22 -28 -21 -15 -23 -15 -23 2 0 15 -2 16 -10 3 -8 -12 -10 -11 -10 8 0 13 6
29 13 37 16 19 63 19 71 0z m-512 -164 c-8 -4 -13 -11 -13 -15 3 -23 0 -30 -9
-16 -10 16 4 40 24 40 7 0 6 -4 -2 -9z m-32 -41 c0 -5 -2 -10 -4 -10 -3 0 -8
5 -11 10 -3 6 -1 10 4 10 6 0 11 -4 11 -10z m570 -93 c0 -7 -7 -22 -15 -33
-12 -16 -14 -17 -15 -2 0 23 11 48 21 48 5 0 9 -6 9 -13z m-355 -237 c-16 -31
-29 -37 -40 -21 -6 10 32 51 47 51 5 0 2 -13 -7 -30z"/>
<path d="M1773 4487 c0 -8 6 -14 13 -14 7 0 10 6 7 14 -3 7 -8 13 -12 13 -4 0
-8 -6 -8 -13z"/>
<path d="M1328 5333 c5 -21 7 -23 10 -9 2 10 0 22 -6 28 -6 6 -7 0 -4 -19z"/>
<path d="M1550 5344 c0 -13 18 -39 24 -34 2 3 -2 14 -10 24 -8 11 -14 16 -14
10z"/>
<path d="M1530 5321 c0 -6 4 -13 10 -16 6 -3 7 1 4 9 -7 18 -14 21 -14 7z"/>
<path d="M1270 4906 c0 -2 7 -7 16 -10 8 -3 12 -2 9 4 -6 10 -25 14 -25 6z"/>
<path d="M1176 4863 c15 -60 24 -79 18 -38 -3 22 -6 46 -6 53 -1 6 -5 12 -10
12 -5 0 -5 -12 -2 -27z"/>
<path d="M1554 4873 c3 -6 2 -14 -4 -18 -15 -9 -12 -22 6 -29 14 -5 15 -4 5 8
-9 11 -9 15 1 19 10 4 10 7 -1 18 -8 8 -11 9 -7 2z"/>
<path d="M1615 4850 c3 -5 -1 -10 -9 -10 -9 0 -16 -5 -16 -10 0 -7 7 -7 20 0
17 9 20 30 4 30 -3 0 -2 -4 1 -10z"/>
<path d="M1693 4838 c-11 -19 -12 -37 -3 -43 4 -3 10 2 14 10 3 8 0 15 -6 15
-7 0 -6 5 2 15 7 8 10 15 7 15 -3 0 -9 -6 -14 -12z"/>
<path d="M1187 4730 c53 -93 93 -155 93 -144 0 5 -11 27 -25 49 -13 22 -25 51
-25 65 0 14 -7 36 -15 50 l-15 25 5 -30 c5 -27 4 -28 -7 -11 -38 55 -44 53
-11 -4z"/>
<path d="M1665 4770 c-3 -6 1 -7 9 -4 18 7 21 14 7 14 -6 0 -13 -4 -16 -10z"/>
<path d="M1135 4693 c4 -10 11 -30 15 -45 4 -14 20 -46 34 -70 14 -25 26 -52
26 -61 0 -10 5 -17 11 -17 5 0 8 4 4 9 -3 5 -1 12 4 15 5 4 -3 20 -19 37 -15
18 -38 58 -50 90 -11 33 -24 59 -27 59 -3 0 -2 -8 2 -17z"/>
<path d="M1574 4564 c-4 -16 -2 -29 6 -34 9 -5 9 -9 1 -13 -7 -3 -7 -4 1 -2
14 3 14 7 3 40 -5 14 -4 16 3 6 5 -7 12 -9 15 -5 3 5 -1 15 -9 22 -11 10 -15
8 -20 -14z"/>
<path d="M1550 4480 c0 -5 7 -7 15 -4 8 4 15 8 15 10 0 2 -7 4 -15 4 -8 0 -15
-4 -15 -10z"/>
<path d="M1270 4459 c0 -5 5 -7 10 -4 6 3 10 8 10 11 0 2 -4 4 -10 4 -5 0 -10
-5 -10 -11z"/>
<path d="M1300 4440 c8 -5 20 -10 25 -10 6 0 3 5 -5 10 -8 5 -19 10 -25 10 -5
0 -3 -5 5 -10z"/>
<path d="M1785 4350 c-20 -38 -19 -42 8 -35 20 5 20 5 -3 -9 -24 -14 -24 -15
-2 -13 12 1 22 5 22 10 0 4 4 6 9 3 5 -3 14 1 20 8 9 11 9 19 -1 35 -20 32
-37 33 -53 1z m48 -26 c-3 -8 -7 -14 -10 -14 -3 0 -3 7 1 15 6 18 2 19 -27 4
-19 -9 -20 -8 -6 3 9 7 14 19 11 26 -3 9 3 8 16 -4 11 -9 18 -23 15 -30z"/>
<path d="M1996 4327 c3 -10 9 -15 12 -12 3 3 0 11 -7 18 -10 9 -11 8 -5 -6z"/>
<path d="M1331 4230 l-35 -17 31 1 c17 0 31 6 30 11 -1 6 4 9 11 7 8 -1 11 2
7 8 -3 5 -7 10 -8 9 -1 -1 -17 -9 -36 -19z"/>
<path d="M1390 4236 c0 -2 7 -7 16 -10 8 -3 12 -2 9 4 -6 10 -25 14 -25 6z"/>
<path d="M1370 4141 c0 -6 4 -13 10 -16 6 -3 7 1 4 9 -7 18 -14 21 -14 7z"/>
<path d="M1670 4079 c0 -12 -25 -39 -36 -39 -4 0 -13 -8 -20 -17 -7 -10 -18
-18 -25 -18 -7 0 -13 -8 -15 -18 -2 -18 -2 -18 19 0 12 10 27 25 34 33 7 8 13
11 13 7 0 -8 60 50 60 58 0 3 -7 5 -15 5 -8 0 -15 -5 -15 -11z"/>
<path d="M1625 3840 c-3 -6 1 -7 9 -4 18 7 21 14 7 14 -6 0 -13 -4 -16 -10z"/>
<path d="M1611 3794 c0 -11 3 -14 6 -6 3 7 2 16 -1 19 -3 4 -6 -2 -5 -13z"/>
<path d="M1630 3800 c0 -5 7 -7 15 -4 8 4 15 8 15 10 0 2 -7 4 -15 4 -8 0 -15
-4 -15 -10z"/>
</g>
</svg>
